
        <svg xmlns="http://www.w3.org/2000/svg" xmlns:xlink="http://www.w3.org/1999/xlink" version="1.1" width="3146.228835300154" 
        height="709.2098512057465" viewBox="0 0 3146.228835300154 709.2098512057465">
			
			<g transform="scale(7.311441765007696) translate(10, 10)">
				<defs id="SvgjsDefs1482"></defs><g id="SvgjsG1483" featureKey="symbolGroupContainer" transform="matrix(1,0,0,1,0,0)" fill="#ffffff">    <rect width="114" height="77"></rect></g><g id="SvgjsG1484" featureKey="5TMTKC-0" transform="matrix(-1.6018306636155604,0,0,1.6018306636155604,95.28604118993134,0.1029745228503316)" fill="#0083fd"><g xmlns="http://www.w3.org/2000/svg"><g><polygon fill="#0083fd" points="1,9.3 47,18.4 32.2,20.9 17.1,15.8 27.7,21.9 11.1,24.6   "></polygon></g><g><polygon fill="#0083fd" points="37.4,21.9 20.2,24.6 35.6,38.7   "></polygon></g></g></g><g id="SvgjsG1485" featureKey="7UBp9i-0" transform="matrix(4.061078112464565,0,0,4.061078112464565,130.26380758463782,-11.655614811053944)" fill="#ffffff"><path d="M10.42 15.48 l-8.04 0 c0.06 0.98 0.42 1.78 1.1 2.42 c0.68 0.66 1.5 0.98 2.46 0.98 c1.5 0 2.62 -0.74 3.08 -2.12 l1.28 0.4 c-0.28 0.94 -0.82 1.68 -1.62 2.22 c-0.8 0.52 -1.7 0.8 -2.72 0.8 c-0.94 0 -1.8 -0.24 -2.58 -0.7 s-1.38 -1.08 -1.8 -1.88 c-0.44 -0.78 -0.66 -1.64 -0.66 -2.58 c0 -0.9 0.2 -1.74 0.62 -2.52 c0.4 -0.8 0.98 -1.42 1.74 -1.9 c0.74 -0.48 1.58 -0.72 2.48 -0.72 c0.98 0 1.84 0.22 2.56 0.68 c0.72 0.44 1.26 1.06 1.6 1.82 c0.36 0.76 0.52 1.62 0.52 2.62 c0 0.1 0 0.26 -0.02 0.48 z M2.4 14.24 l6.58 0 c-0.1 -0.92 -0.44 -1.66 -1 -2.24 c-0.56 -0.56 -1.3 -0.84 -2.22 -0.84 c-0.86 0 -1.58 0.3 -2.22 0.9 c-0.64 0.62 -1.02 1.34 -1.14 2.18 z M12.22 15.02 c0 -1.3 0.48 -2.58 1.28 -3.54 c0.8 -0.98 2.02 -1.6 3.38 -1.6 c0.92 0 1.74 0.26 2.36 0.7 s1.06 0.92 1.5 1.56 l0 -7.3 l1.44 0 l0 15.16 l-1.42 0 l0 -2.12 c-0.92 1.52 -2.22 2.26 -3.88 2.26 c-1.38 0 -2.6 -0.6 -3.4 -1.54 c-0.78 -0.94 -1.26 -2.22 -1.26 -3.58 z M17.18 18.88 c2.04 0.02 3.62 -1.88 3.58 -3.88 c0 -1.3 -0.64 -2.54 -1.74 -3.28 c-0.56 -0.36 -1.18 -0.54 -1.84 -0.54 c-1.06 0 -1.9 0.36 -2.52 1.1 c-0.64 0.74 -0.96 1.66 -0.96 2.78 c0 1.38 0.56 2.56 1.62 3.28 c0.54 0.36 1.16 0.54 1.86 0.54 z M35.42 15.02 c0 1.8 -0.78 3.42 -2.22 4.4 c-0.72 0.48 -1.54 0.72 -2.46 0.72 c-1.62 0 -2.92 -0.74 -3.86 -2.24 l0 2.1 l-1.42 0 l0 -15.16 l1.46 0 l0 7.36 c1 -1.54 2.28 -2.32 3.82 -2.32 c1.38 0 2.62 0.62 3.42 1.6 c0.78 0.96 1.26 2.24 1.26 3.54 z M30.46 18.88 c1.06 0 1.9 -0.38 2.54 -1.1 c0.62 -0.74 0.94 -1.64 0.94 -2.72 c0 -1.4 -0.54 -2.62 -1.62 -3.34 c-0.52 -0.36 -1.16 -0.54 -1.86 -0.54 c-2.02 -0.04 -3.62 1.84 -3.56 3.82 c0 1.04 0.32 1.96 1 2.72 c0.68 0.78 1.52 1.16 2.56 1.16 z M41.22 14.26 l2.76 0 l0 -0.66 c0 -1.6 -0.88 -2.42 -2.54 -2.42 c-0.8 0 -1.48 0.26 -1.88 0.66 s-0.64 0.86 -0.72 1.36 l-1.4 -0.3 c0.02 -0.5 0.5 -1.48 1.4 -2.2 c0.6 -0.46 1.56 -0.82 2.64 -0.82 c1.82 0 3.02 0.68 3.62 2.06 c0.2 0.46 0.3 1 0.3 1.64 l0 2.8 c0 1.66 0.06 2.88 0.16 3.62 l-1.44 0 c-0.08 -0.44 -0.14 -1.02 -0.14 -1.74 l0 0 c-0.84 1.28 -1.94 1.92 -3.36 1.92 c-0.98 0 -1.8 -0.28 -2.4 -0.84 c-0.62 -0.54 -0.94 -1.24 -0.94 -2.1 l0 -0.1 c0 -2.16 2.16 -2.88 3.94 -2.88 z M43.98 15.8 l0 -0.34 l-2.78 0 c-0.58 0 -1.12 0.1 -1.62 0.34 c-0.5 0.22 -0.84 0.7 -0.84 1.32 c0 0.56 0.2 0.98 0.62 1.3 c0.4 0.32 0.9 0.48 1.52 0.48 c0.88 0 1.62 -0.3 2.22 -0.88 c0.58 -0.56 0.88 -1.32 0.88 -2.22 z M57.18 20 l-1.46 0 l0 -5.78 c0 -0.92 -0.22 -1.64 -0.7 -2.2 c-0.46 -0.54 -1.14 -0.82 -2.04 -0.82 c-0.86 0 -1.58 0.3 -2.14 0.9 c-0.54 0.6 -0.82 1.34 -0.82 2.24 l0 5.66 l-1.46 0 l0 -15.16 l1.46 0 l0 7 c0.78 -1.32 1.92 -1.96 3.4 -1.96 c1.18 0 2.1 0.36 2.78 1.08 c0.64 0.74 0.98 1.7 0.98 2.9 l0 6.14 z M68.96 20 l-1.46 0 l0 -5.78 c0 -0.92 -0.22 -1.64 -0.7 -2.2 c-0.46 -0.54 -1.14 -0.82 -2.04 -0.82 c-0.86 0 -1.58 0.3 -2.14 0.9 c-0.54 0.6 -0.82 1.34 -0.82 2.24 l0 5.66 l-1.46 0 l0 -9.94 l1.42 0 l0 1.82 c0.8 -1.34 1.94 -2 3.44 -2 c1.18 0 2.1 0.36 2.78 1.08 c0.64 0.74 0.98 1.7 0.98 2.9 l0 6.14 z"></path></g>
			</g>
		</svg>
	