
        <svg xmlns="http://www.w3.org/2000/svg" xmlns:xlink="http://www.w3.org/1999/xlink" version="1.1" width="3146.228835300154" 
        height="709.2098512057465" viewBox="0 0 3146.228835300154 709.2098512057465">
			
			<g transform="scale(7.311441765007696) translate(10, 10)">
				<defs id="SvgjsDefs1001"></defs><g id="SvgjsG1007" featureKey="symbolGroupContainer" transform="matrix(1,0,0,1,0,0)" fill="#ffffff"><rect width="114" height="77" rx="10"></rect></g><g id="SvgjsG1008" featureKey="5TMTKC-0" transform="matrix(-1.6018306636155604,0,0,1.6018306636155604,95.28604118993134,0.1029745228503316)" fill="#0083fd"><g xmlns="http://www.w3.org/2000/svg"><g><polygon fill="#0083fd" points="1,9.3 47,18.4 32.2,20.9 17.1,15.8 27.7,21.9 11.1,24.6   "></polygon></g><g><polygon fill="#0083fd" points="37.4,21.9 20.2,24.6 35.6,38.7   "></polygon></g></g></g><g id="SvgjsG1009" featureKey="7UBp9i-0" transform="matrix(3.4539473684210527,0,0,3.4539473684210527,131.2368420640889,-3.1282948098684606)" fill="#ffffff"><path d="M0.8 14.18 c0 -3.08 2.62 -5.76 5.98 -5.76 c3.34 0 5.96 2.68 5.96 5.76 c0 0.42 -0.04 0.82 -0.12 1.2 l-8.34 0.02 c0.44 0.9 1.36 1.54 2.5 1.54 c0.78 0 1.48 -0.32 1.96 -0.8 l3.64 0 c-0.82 2.18 -3 3.82 -5.6 3.82 c-3.36 0 -5.98 -2.6 -5.98 -5.7 l0 -0.08 z M4.38 12.8 l-0.1 0.28 l5.06 0 l-0.16 -0.28 c-0.48 -0.8 -1.34 -1.36 -2.4 -1.36 s-1.94 0.56 -2.4 1.36 z M14.34 14.18 c0 3.14 2.66 5.84 6.04 5.84 c1 0 1.94 -0.2 2.8 -0.62 l0 0.6 l3.24 0 l0 -0.18 c0 -1.88 0.02 -3.76 0.02 -5.64 c0 -3.18 -0.02 -6.38 -0.02 -9.56 l0 -0.2 l-3.18 0 l0 4.6 c-0.88 -0.44 -1.84 -0.66 -2.86 -0.66 c-3.38 0 -6.04 2.7 -6.04 5.82 z M22.38 16.16 c-0.54 0.54 -1.2 0.82 -2 0.82 c-1.58 0 -2.8 -1.32 -2.8 -2.8 c0 -1.46 1.22 -2.78 2.8 -2.78 c0.8 0 1.46 0.3 2 0.82 c0.4 0.4 0.8 1.1 0.8 1.62 l0 0.7 c0 0.52 -0.4 1.24 -0.8 1.62 z M28.06 20 l3.24 0 l0 -0.64 c0.86 0.42 1.8 0.62 2.78 0.62 c3.4 0 6.06 -2.7 6.06 -5.84 c0 -3.12 -2.66 -5.82 -6.06 -5.82 c-1 0 -1.96 0.22 -2.84 0.66 l0 -4.6 l-3.18 0 l0 0.2 c0 3.18 -0.02 6.38 -0.02 9.56 c0 1.9 0.02 3.78 0.02 5.68 l0 0.18 z M36.9 14.14 c0 1.48 -1.22 2.8 -2.82 2.8 c-0.78 0 -1.44 -0.28 -1.98 -0.8 c-0.4 -0.4 -0.8 -1.12 -0.8 -1.64 l0 -0.7 c0 -0.52 0.4 -1.22 0.8 -1.62 c0.54 -0.52 1.2 -0.82 1.98 -0.82 c1.6 0 2.82 1.32 2.82 2.78 z M41.32 14.16 c0 3.14 2.66 5.84 6.04 5.84 c1.02 0 1.98 -0.22 2.86 -0.66 l0 0.66 l3.18 0 l-0.02 -11.56 l-3.24 0 l0 0.52 c-0.86 -0.42 -1.8 -0.62 -2.78 -0.62 c-3.38 0 -6.04 2.7 -6.04 5.82 z M49.36 16.14 c-0.54 0.52 -1.2 0.82 -2 0.82 c-1.58 0 -2.8 -1.32 -2.8 -2.8 c0 -1.46 1.22 -2.78 2.8 -2.78 c0.8 0 1.46 0.28 2 0.8 c0.34 0.34 0.78 1.06 0.78 1.48 l0 1.02 c0 0.42 -0.44 1.1 -0.78 1.46 z M55.02 4.58 c0 5 -0.02 10.24 -0.02 15.24 l0 0.18 l3.24 0 l0 -5.92 c0 -1.44 1.26 -2.7 2.8 -2.7 c1.48 0 2.64 1.14 2.8 2.5 c0.02 0.2 0 0.42 0 0.62 l0.02 1.46 l0 4 l3.24 0.04 l0 -6.02 c0 -1.46 -0.74 -2.9 -1.8 -3.92 c-1.16 -1.12 -2.58 -1.72 -4.26 -1.72 c-1 0 -1.96 0.22 -2.84 0.66 l0 -4.6 l-3.18 0 l0 0.18 z M68.72 8.52 c0 3.76 -0.02 7.52 -0.02 11.3 l0 0.18 l3.24 0 l0 -5.92 c0 -1.44 1.26 -2.7 2.8 -2.7 c1.48 0 2.64 1.14 2.8 2.5 c0.02 0.2 0 0.42 0 0.62 l0.02 1.46 l0 4 l3.24 0.04 l0 -6.02 c0 -1.46 -0.74 -2.9 -1.8 -3.92 c-1.16 -1.12 -2.58 -1.72 -4.26 -1.72 c-1 0 -1.96 0.22 -2.84 0.66 l0 -0.6 l-3.18 0 l0 0.12 z"></path></g>
			</g>
		</svg>
	