        <svg xmlns="http://www.w3.org/2000/svg" xmlns:xlink="http://www.w3.org/1999/xlink" version="1.1" width="3230.769230769231" 
        height="1430.7692307692307" viewBox="0 0 3230.769230769231 1430.7692307692307">
			
			<g transform="scale(11.538461538461538) translate(10, 10)">
				<defs id="SvgjsDefs1099"><linearGradient id="SvgjsLinearGradient1106"><stop id="SvgjsStop1107" stop-color="#2d388a" offset="0"></stop><stop id="SvgjsStop1108" stop-color="#00aeef" offset="1"></stop></linearGradient></defs><g id="SvgjsG1100" featureKey="symbolContainer" transform="matrix(1,0,0,1,0,0)" fill="url(#SvgjsLinearGradient1106)"><rect xmlns="http://www.w3.org/2000/svg" width="140" height="104" rx="10" ry="10"></rect></g><g id="SvgjsG1101" featureKey="uHI19F-0" transform="matrix(2.1739130434782608,0,0,2.1739130434782608,17.826086956521735,-0.2173917189888286)" fill="#ffffff"><g xmlns="http://www.w3.org/2000/svg"><g><polygon fill="#ffffff" points="1,9.3 47,18.4 32.2,20.9 17.1,15.8 27.7,21.9 11.1,24.6   "></polygon></g><g><polygon fill="#ffffff" points="37.4,21.9 20.2,24.6 35.6,38.7   "></polygon></g></g></g><g id="SvgjsG1102" featureKey="8FbbNb-0" transform="matrix(1.550387596899225,0,0,1.550387596899225,158.75968944194705,32.434108349704005)" fill="#ffffff"><path d="M5.7 10.28 c1.4533 0 2.5834 0.45664 3.39 1.37 s1.2167 2.17 1.23 3.77 l0 0.5 l-7.6 0 c0 0.77334 0.31 1.4233 0.93 1.95 s1.3767 0.79666 2.27 0.81 c0.98666 0 1.8533 -0.47334 2.6 -1.42 l1.36 1.04 c-1.0133 1.2933 -2.4134 1.94 -4.2 1.94 c-1.4533 0 -2.6234 -0.46334 -3.51 -1.39 s-1.3433 -2.1234 -1.37 -3.59 c0 -1.4133 0.45666 -2.59 1.37 -3.53 s2.09 -1.4233 3.53 -1.45 z M8.4 14.48 c-0.02666 -0.89334 -0.28 -1.5767 -0.76 -2.05 s-1.14 -0.71 -1.98 -0.71 c-0.56 0 -1.0633 0.13666 -1.51 0.41 s-0.79666 0.62668 -1.05 1.06 s-0.38 0.86334 -0.38 1.29 l5.68 0 z M21.98 4.880000000000001 l-0.000019531 15.12 l-1.8 0 l0 -1.36 l-0.04 0 c-0.34666 0.50666 -0.81666 0.9 -1.41 1.18 s-1.2233 0.42 -1.89 0.42 c-1.4267 -0.01334 -2.5834 -0.48668 -3.47 -1.42 s-1.3367 -2.12 -1.35 -3.56 c0 -1.4533 0.44334 -2.64 1.33 -3.56 s2.05 -1.3933 3.49 -1.42 c0.65334 0 1.28 0.14 1.88 0.42 s1.0733 0.67334 1.42 1.18 l0.04 0 l0 -7 l1.8 0 z M13.940000000000001 15.26 c0 0.97334 0.28666 1.7633 0.86 2.37 s1.3267 0.91666 2.26 0.93 c0.94666 0 1.7033 -0.30334 2.27 -0.91 s0.85 -1.4033 0.85 -2.39 c0 -0.97334 -0.28 -1.7633 -0.84 -2.37 s-1.3267 -0.91666 -2.3 -0.93 c-0.93334 0 -1.6833 0.30666 -2.25 0.92 s-0.85 1.4067 -0.85 2.38 z M25.580000000000005 10.52 l2.14 7.08 l0.04 0 l2.26 -7.08 l1.9 0 l2.4 7.08 l0.04 0 l2.04 -7.08 l1.9 0 l-3.06 9.48 l-1.82 0 l-2.5 -7.08 l-0.04 0 l-2.26 7.08 l-1.94 0 l-3.12 -9.48 l2.02 0 z M40.92 5.800000000000001 c0.36 0 0.67002 0.13002 0.93002 0.39002 s0.39 0.57 0.39 0.93 c0 0.37334 -0.13334 0.68668 -0.4 0.94002 s-0.57332 0.38 -0.91998 0.38 c-0.37334 0 -0.68668 -0.12666 -0.94002 -0.38 s-0.38 -0.56668 -0.38 -0.94002 s0.13334 -0.68668 0.4 -0.94002 s0.57332 -0.38 0.91998 -0.38 z M41.82 10.52 l0 9.48 l-1.8 0 l0 -9.48 l1.8 0 z M49.64 10.28 c1.0667 0 1.9033 0.32 2.51 0.96 s0.91666 1.5 0.93 2.58 l0 6.18 l-1.8 0 l0 -5.66 c0 -0.73334 -0.19 -1.3133 -0.57 -1.74 s-0.91 -0.64 -1.59 -0.64 c-0.84 0 -1.49 0.28 -1.95 0.84 s-0.69 1.3067 -0.69 2.24 l0 4.96 l-1.8 0 l0 -9.48 l1.8 0 l0 1.46 l0.04 0 c0.25334 -0.53334 0.66334 -0.95 1.23 -1.25 s1.1967 -0.45 1.89 -0.45 z M65.3 4.880000000000001 l-0.000019531 15.12 l-1.8 0 l0 -1.36 l-0.04 0 c-0.34666 0.50666 -0.81666 0.9 -1.41 1.18 s-1.2233 0.42 -1.89 0.42 c-1.4267 -0.01334 -2.5834 -0.48668 -3.47 -1.42 s-1.3367 -2.12 -1.35 -3.56 c0 -1.4533 0.44334 -2.64 1.33 -3.56 s2.05 -1.3933 3.49 -1.42 c0.65334 0 1.28 0.14 1.88 0.42 s1.0733 0.67334 1.42 1.18 l0.04 0 l0 -7 l1.8 0 z M57.26 15.26 c0 0.97334 0.28666 1.7633 0.86 2.37 s1.3267 0.91666 2.26 0.93 c0.94666 0 1.7033 -0.30334 2.27 -0.91 s0.85 -1.4033 0.85 -2.39 c0 -0.97334 -0.28 -1.7633 -0.84 -2.37 s-1.3267 -0.91666 -2.3 -0.93 c-0.93334 0 -1.6833 0.30666 -2.25 0.92 s-0.85 1.4067 -0.85 2.38 z"></path></g>
			</g>
		</svg>
	